<?xml version="1.0" encoding="UTF-8"?>
<svg id="Layer_1" data-name="Layer 1" xmlns="http://www.w3.org/2000/svg" viewBox="0 0 1717.91 842.42">
  <defs>
    <style>
      .cls-1 {
        fill: none;
      }

      .cls-2 {
        fill: #c74325;
      }
    </style>
  </defs>
  <g>
    <path class="cls-2" d="m565.76,510.71c-6.72,16.27-22.72,27.73-41.42,27.73-24.74,0-44.8-20.06-44.8-44.8s20.06-44.8,44.8-44.8c18.7,0,34.7,11.46,41.42,27.73h109.75v-94.83h-77.22v21.38c-18.32-17.89-43.19-27.92-73.29-27.92-65.44,0-111.25,53.22-111.25,118.66s45.81,118.23,111.25,118.23c30.54,0,56.71-13.52,73.29-31.85h.87v25.3h76.34v-94.82h-109.75Z"/>
    <path class="cls-2" d="m376.93,375.19c-44.06,0-68.49,38.83-68.49,38.83h-.87v-32.28h-77.22v223.8h77.22v-117.79c0-5.67,5.67-45.37,45.81-45.37,25.74,0,40.14,12.21,40.14,12.21l32.28-65.44s-20.07-13.96-48.86-13.96Z"/>
    <path class="cls-2" d="m998.6,342.9c20.07,0,37.08-17.45,37.08-38.39s-17.01-38.39-37.08-38.39-37.08,17.45-37.08,38.39,17.01,38.39,37.08,38.39Z"/>
    <path class="cls-2" d="m859.72,403.11c-18.32-17.89-43.19-27.92-73.29-27.92-59.55,0-102.72,44.12-110.03,101.37h67.95c6.72-16.27,22.72-27.73,41.42-27.73,24.74,0,44.8,20.06,44.8,44.8s-20.06,44.8-44.8,44.8c-18.7,0-34.7-11.46-41.42-27.73h-68.01c7.15,57.39,50.39,101.37,110.08,101.37,30.54,0,56.71-13.52,73.29-31.85h.87v25.3h76.35V230.35h-77.22v172.76Z"/>
    <path class="cls-2" d="m1419.5,464.18c-19.2-6.11-34.9-9.6-34.9-21.38,0-10.47,6.98-13.52,23.99-13.52,23.56,0,49.73,13.96,49.73,13.96l25.3-50.61s-31.85-17.45-75.04-17.45c-58.9,0-97.72,26.18-97.72,71.98,0,33.59,22.69,49.3,45.37,61.08,25.3,13.09,49.73,14.4,49.73,30.54,0,14.83-13.09,16.14-23.99,16.14-24.87,0-55.41-25.74-55.41-25.74l-31.41,52.79s32.28,30.1,86.38,30.1c45.81,0,106.01-10.47,106.01-76.34,0-45.81-38.39-62.38-68.06-71.55Z"/>
    <rect class="cls-2" x="958.46" y="376.06" width="78.53" height="229.47"/>
    <path class="cls-2" d="m1211.77,488.18c0,44.06-5.78,61.07-38.06,61.07s-38.06-17.01-38.06-61.07v-112.12h-77.22v130.88c0,75.04,31.52,105.14,115.28,105.14s115.28-30.1,115.28-105.14v-130.88h-77.22v112.12Z"/>
  </g>
  <rect class="cls-1" width="1717.91" height="842.42"/>
</svg>