<?xml version="1.0" encoding="UTF-8"?>
<svg id="Layer_1" data-name="Layer 1" xmlns="http://www.w3.org/2000/svg" viewBox="0 0 1080 1080">
  <defs>
    <style>
      .cls-1 {
        fill: #6b88ff;
      }

      .cls-2 {
        fill: #2623f8;
      }
    </style>
  </defs>
  <path class="cls-2" d="m132.97,284.62l252.95-85.74-9.65,678.45-248.23-140.28c-12.57-5.72-23.04-18.77-23.04-37.37v-375.73c0-17.05,7.61-32.32,27.97-39.32Z"/>
  <path class="cls-1" d="m258.07,302.41c8.61,0,15.59,6.98,15.59,15.59v429.14c0,8.61-6.98,15.59-15.59,15.59s-15.59-6.98-15.59-15.59v-429.14c0-8.61,6.98-15.59,15.59-15.59Z"/>
  <path class="cls-1" d="m166.78,351.82c8.61,0,15.59,6.98,15.59,15.59v298.41c0,8.61-6.98,15.59-15.59,15.59s-15.59-6.98-15.59-15.59v-298.41c0-8.61,6.98-15.59,15.59-15.59Z"/>
  <rect class="cls-1" x="340.54" y="196.9" width="634.46" height="686.2" rx="60.56" ry="60.56" transform="translate(1315.54 1080) rotate(180)"/>
  <path class="cls-2" d="m975,257.46c0-19.62-9.37-37.01-23.84-48.08l-204.33,194.76c-61.47-40.74-144.95-35.85-201.21,16.69-65.81,61.47-69.34,164.65-7.87,230.46,61.47,65.81,164.65,69.34,230.46,7.87,57.75-53.94,67.51-139.98,27.51-204.73l179.28-170.87v-26.1Z"/>
</svg>