<?xml version="1.0" encoding="UTF-8"?>
<svg id="Layer_1" data-name="Layer 1" xmlns="http://www.w3.org/2000/svg" viewBox="0 0 1080 1080">
  <defs>
    <style>
      .cls-1 {
        fill: #fff;
      }

      .cls-2 {
        fill: #b3cc40;
      }

      .cls-3 {
        fill: #799116;
      }
    </style>
  </defs>
  <g>
    <path class="cls-3" d="m499.08,936.74h-70.12c-37.45,0-67.93-30.47-67.93-67.93v-17.53c0-37.45,30.47-67.93,67.93-67.93h87.65c20.54,0,37.25-16.71,37.25-37.25v-17.53c0-20.54-16.71-37.25-37.25-37.25v-30.68c37.45,0,67.93,30.47,67.93,67.93v17.53c0,37.45-30.47,67.93-67.93,67.93h-87.65c-20.54,0-37.25,16.71-37.25,37.25v17.53c0,20.54,16.71,37.25,37.25,37.25h70.12c8.47,0,15.34,6.87,15.34,15.34s-6.87,15.34-15.34,15.34Z"/>
    <path class="cls-3" d="m666.22,890.42h-44.43v-21.61h-87.65c-19.36,0-35.06,15.7-35.06,35.06v35.06c0,19.36,15.7,35.06,35.06,35.06h87.65v-21.61h44.43c4.84,0,8.76-3.92,8.76-8.76v-44.43c0-4.84-3.92-8.77-8.76-8.77Zm-8.77,44.44h-35.67v-26.91h35.67v26.91Z"/>
    <rect class="cls-2" x="230" y="106.01" width="620" height="620" rx="92.43" ry="92.43"/>
    <path class="cls-1" d="m707.16,375.15c-3.47-.76-7.23-4.15-8.36-7.51l-11.75-28.48c-1.57-3.19-1.29-8.25.62-11.24l22.26-37.71c1.87-2.93,1.39-7.35-1.07-9.81l-31.58-31.57c-2.46-2.46-6.88-2.94-9.81-1.07l-37.69,22.26c-3,1.91-8.05,2.18-11.23.61l-28.46-11.82c-3.36-1.14-6.74-4.92-7.5-8.39l-10.88-42.41c-.75-3.4-4.21-6.18-7.69-6.18h-44.74c-3.48,0-6.94,2.78-7.69,6.18l-10.88,42.39c-.76,3.47-4.14,7.23-7.51,8.37l-28.49,11.76c-3.19,1.57-8.25,1.29-11.24-.62l-37.71-22.27c-2.93-1.87-7.35-1.39-9.81,1.07l-31.57,31.59c-2.46,2.46-2.94,6.88-1.07,9.81l22.26,37.69c1.91,3,2.18,8.05.61,11.23l-11.83,28.45c-1.15,3.36-4.92,6.74-8.39,7.5l-42.4,10.89c-3.4.75-6.18,4.21-6.18,7.69v44.74c0,3.48,2.78,6.94,6.18,7.69l42.39,10.88c3.47.76,7.24,4.14,8.37,7.51l11.76,28.48c1.57,3.19,1.29,8.25-.62,11.24l-22.26,37.71c-1.87,2.94-1.39,7.35,1.07,9.81l31.58,31.57c2.46,2.46,6.88,2.94,9.81,1.07l37.69-22.26c2.99-1.91,8.05-2.19,11.23-.61l28.45,11.82c3.36,1.15,6.74,4.92,7.5,8.39l10.89,42.41c.75,3.4,4.21,6.18,7.69,6.18h44.74c3.48,0,6.94-2.78,7.69-6.18l10.87-42.39c.76-3.47,4.14-7.24,7.51-8.37l28.49-11.76c3.19-1.57,8.25-1.29,11.24.62l37.7,22.26c2.94,1.87,7.35,1.39,9.81-1.07l31.57-31.58c2.46-2.46,2.94-6.88,1.07-9.81l-22.26-37.69c-1.91-3-2.18-8.05-.61-11.23l11.82-28.46c1.14-3.36,4.92-6.74,8.39-7.5l42.41-10.88c3.4-.75,6.18-4.21,6.18-7.69v-44.74c0-3.48-2.78-6.94-6.18-7.69l-42.4-10.88Z"/>
  </g>
  <path class="cls-3" d="m632.52,391.88c-.05.01.37,2.89.95,6.4,0,0,2.96,18.07,1.32,30.22-1.63,12.14-5.7,24.04-11.92,34.74-6.21,10.71-14.52,20.15-24.26,27.59-9.75,7.45-20.88,12.9-32.96,16.11-12.08,3.2-24.45,3.99-36.61,2.36-12.15-1.62-24.05-5.7-34.76-11.92-10.71-6.21-20.16-14.53-27.6-24.27-7.45-9.75-12.91-20.89-16.12-32.97-3.2-12.08-4-24.46-2.36-36.63,1.62-12.15,5.71-24.07,11.93-34.78,6.22-10.71,14.53-20.17,24.28-27.61,9.76-7.46,20.9-12.91,32.99-16.13,12.09-3.21,24.48-4,36.65-2.37,12.16,1.62,24.08,5.71,34.79,11.93,10.72,6.22,20.18,14.54,27.63,24.29,7.46,9.76,13.88,26.96,13.88,26.96,1.24,3.33,2.22,6.06,2.16,6.07Z"/>
</svg>