<?xml version="1.0" encoding="UTF-8"?>
<svg id="Layer_1" data-name="Layer 1" xmlns="http://www.w3.org/2000/svg" viewBox="0 0 1080 1080">
  <defs>
    <style>
      .cls-1 {
        fill: #fff;
      }

      .cls-2 {
        fill: #b3cc40;
      }

      .cls-3 {
        fill: #799116;
      }
    </style>
  </defs>
  <path class="cls-2" d="m940,722.58v-365.16c0-29.93-15.97-57.58-41.88-72.54l-316.24-182.58c-25.92-14.96-57.85-14.96-83.76,0l-316.24,182.58c-25.92,14.96-41.88,42.62-41.88,72.54v365.16c0,29.93,15.97,57.58,41.88,72.54l316.24,182.58c25.92,14.96,57.85,14.96,83.76,0l316.24-182.58c25.92-14.96,41.88-42.62,41.88-72.54Z"/>
  <g>
    <path class="cls-3" d="m703.72,789.53h-327.43c-18.41,0-33.33-14.92-33.33-33.33v-375.27l90.62-90.46h270.14c18.41,0,33.33,14.92,33.33,33.33v432.4c0,18.41-14.92,33.33-33.33,33.33Z"/>
    <path class="cls-1" d="m472.41,455.35c-5.58,0-10.1-4.52-10.1-10.1v-64.31c0-5.58,4.52-10.1,10.1-10.1s10.1,4.52,10.1,10.1v64.31c0,5.58-4.52,10.1-10.1,10.1Z"/>
    <g>
      <path class="cls-1" d="m534.44,462.29c-5.58,0-10.1-4.52-10.1-10.1v-73.96c0-5.58,4.52-10.1,10.1-10.1s10.1,4.52,10.1,10.1v73.96c0,5.58-4.52,10.1-10.1,10.1Z"/>
      <path class="cls-1" d="m534.44,730.77c-5.58,0-10.1-4.52-10.1-10.1v-34.68c0-5.58,4.52-10.1,10.1-10.1s10.1,4.52,10.1,10.1v34.68c0,5.58-4.52,10.1-10.1,10.1Z"/>
    </g>
    <g>
      <path class="cls-1" d="m596.47,533.2c-5.58,0-10.1-4.52-10.1-10.1v-144.87c0-5.58,4.52-10.1,10.1-10.1s10.1,4.52,10.1,10.1v144.87c0,5.58-4.52,10.1-10.1,10.1Z"/>
      <path class="cls-1" d="m596.47,730.77c-5.58,0-10.1-4.52-10.1-10.1v-135.88c0-5.58,4.52-10.1,10.1-10.1s10.1,4.52,10.1,10.1v135.88c0,5.58-4.52,10.1-10.1,10.1Z"/>
    </g>
    <g>
      <path class="cls-1" d="m658.5,502.71c-5.58,0-10.1-4.52-10.1-10.1v-114.39c0-5.58,4.52-10.1,10.1-10.1s10.1,4.52,10.1,10.1v114.39c0,5.58-4.52,10.1-10.1,10.1Z"/>
      <path class="cls-1" d="m658.5,730.77c-5.58,0-10.1-4.52-10.1-10.1v-177.38c0-5.58,4.52-10.1,10.1-10.1s10.1,4.52,10.1,10.1v177.38c0,5.58-4.52,10.1-10.1,10.1Z"/>
    </g>
    <path class="cls-1" d="m342.96,380.93h70.58c11.07,0,20.04-8.97,20.04-20.04v-70.42"/>
    <path class="cls-1" d="m484.04,592.27c-9.39,9.24-24.49,9.12-33.74-.27-9.24-9.39-9.12-24.49.27-33.74,6.52-6.42,15.79-8.32,23.94-5.74l49.63-48.85c-14.48-11.52-32.58-18.78-52.47-19.73-50.44-2.41-93.27,36.52-95.68,86.96-2.41,50.44,36.52,93.27,86.96,95.68,50.44,2.41,93.27-36.52,95.68-86.96,1.08-22.68-6.22-43.82-19.14-60.44l-49.49,48.71c2.69,8.32.7,17.82-5.95,24.37Z"/>
  </g>
</svg>