<?xml version="1.0" encoding="UTF-8"?>
<svg id="Layer_1" data-name="Layer 1" xmlns="http://www.w3.org/2000/svg" viewBox="0 0 1080 1080">
  <defs>
    <style>
      .cls-1 {
        fill: #fff;
      }

      .cls-2 {
        fill: #861adf;
      }

      .cls-3 {
        fill: #d0b1fc;
      }
    </style>
  </defs>
  <rect class="cls-2" x="140" y="140" width="800" height="800" rx="119.27" ry="119.27"/>
  <g>
    <path class="cls-1" d="m540,278.71c-63.91,0-115.71,51.81-115.71,115.71v52.87h41.84v-52.87c0-40.8,33.08-73.87,73.88-73.87s73.88,33.08,73.88,73.87v52.87h41.84v-52.87c0-63.9-51.81-115.71-115.71-115.71Z"/>
    <path class="cls-3" d="m395.89,439.97h288.22c20.48,0,37.1,16.62,37.1,37.1v242.6c0,20.48-16.62,37.1-37.1,37.1h-288.22c-20.48,0-37.1-16.62-37.1-37.1v-242.6c0-20.48,16.62-37.1,37.1-37.1Z"/>
    <path class="cls-1" d="m308.25,533.99h463.5c11.41,0,20.67,9.26,20.67,20.67v86.88c0,11.41-9.26,20.67-20.67,20.67h-463.5c-11.41,0-20.67-9.26-20.67-20.67v-86.88c0-11.41,9.26-20.67,20.67-20.67Z"/>
    <g>
      <path class="cls-2" d="m566.56,583.16c-1.31-2.28-4.23-3.06-6.51-1.74l-15.06,8.7v-17.4c0-2.63-2.13-4.76-4.76-4.76s-4.76,2.13-4.76,4.76v17.39l-15.06-8.7c-2.27-1.32-5.19-.54-6.51,1.74-1.31,2.28-.54,5.19,1.74,6.51l15.06,8.7-15.06,8.7c-2.28,1.31-3.06,4.23-1.74,6.51.88,1.53,2.48,2.38,4.13,2.38.81,0,1.63-.2,2.38-.64l15.06-8.7v17.39c0,2.63,2.13,4.76,4.76,4.76s4.76-2.13,4.76-4.76v-17.39l15.06,8.7c.75.43,1.57.64,2.38.64,1.64,0,3.25-.85,4.13-2.38,1.31-2.28.54-5.19-1.74-6.51l-15.06-8.7,15.06-8.7c2.28-1.31,3.06-4.23,1.74-6.51Z"/>
      <path class="cls-2" d="m477.82,583.16c-1.31-2.28-4.23-3.06-6.51-1.74l-15.06,8.7v-17.4c0-2.63-2.13-4.76-4.76-4.76s-4.76,2.13-4.76,4.76v17.39l-15.06-8.7c-2.28-1.32-5.19-.54-6.51,1.74-1.31,2.28-.54,5.19,1.74,6.51l15.06,8.7-15.06,8.7c-2.28,1.31-3.06,4.23-1.74,6.51.88,1.53,2.48,2.38,4.13,2.38.81,0,1.63-.2,2.38-.64l15.06-8.7v17.39c0,2.63,2.13,4.76,4.76,4.76s4.76-2.13,4.76-4.76v-17.39l15.06,8.7c.75.43,1.57.64,2.38.64,1.64,0,3.25-.85,4.13-2.38,1.31-2.28.54-5.19-1.74-6.51l-15.06-8.7,15.06-8.7c2.28-1.31,3.06-4.23,1.74-6.51Z"/>
      <path class="cls-2" d="m389.08,583.16c-1.31-2.28-4.23-3.06-6.51-1.74l-15.06,8.7v-17.39c0-2.63-2.13-4.76-4.76-4.76s-4.76,2.13-4.76,4.76v17.4l-15.06-8.7c-2.27-1.32-5.19-.54-6.51,1.74-1.31,2.28-.54,5.19,1.74,6.51l15.06,8.7-15.06,8.7c-2.28,1.31-3.06,4.23-1.74,6.51.88,1.53,2.48,2.38,4.13,2.38.81,0,1.63-.2,2.38-.64l15.06-8.7v17.39c0,2.63,2.13,4.76,4.76,4.76s4.76-2.13,4.76-4.76v-17.39l15.06,8.7c.75.43,1.57.64,2.38.64,1.64,0,3.25-.85,4.13-2.38,1.31-2.28.54-5.19-1.74-6.51l-15.06-8.7,15.06-8.7c2.28-1.31,3.06-4.23,1.74-6.51Z"/>
      <path class="cls-2" d="m655.3,583.16c-1.31-2.28-4.23-3.06-6.51-1.74l-15.06,8.7v-17.4c0-2.63-2.13-4.76-4.76-4.76s-4.76,2.13-4.76,4.76v17.4l-15.06-8.7c-2.27-1.32-5.19-.54-6.51,1.74-1.31,2.28-.54,5.19,1.74,6.51l15.07,8.7-15.07,8.7c-2.28,1.31-3.06,4.23-1.74,6.51.88,1.53,2.48,2.38,4.13,2.38.81,0,1.63-.2,2.38-.64l15.06-8.7v17.39c0,2.63,2.13,4.76,4.76,4.76s4.76-2.13,4.76-4.76v-17.39l15.06,8.7c.75.43,1.57.64,2.38.64,1.64,0,3.25-.85,4.13-2.38,1.31-2.28.54-5.19-1.74-6.51l-15.07-8.7,15.07-8.7c2.28-1.31,3.06-4.23,1.74-6.51Z"/>
      <path class="cls-2" d="m739.46,619.24h-43.5c-2.63,0-4.76,2.13-4.76,4.76s2.13,4.76,4.76,4.76h43.5c2.63,0,4.76-2.13,4.76-4.76s-2.13-4.76-4.76-4.76Z"/>
    </g>
  </g>
</svg>