<svg xmlns="http://www.w3.org/2000/svg" width="18" height="18" viewBox="0 0 18 18">
  <defs>
    <linearGradient id="b46a2f5d-6618-4a52-aaa6-d7c026b804cc" x1="12.9633" y1="16.5186" x2="12.9633" y2="9.4678" gradientUnits="userSpaceOnUse">
      <stop offset="0.0012" stop-color="#773adc" />
      <stop offset="0.3418" stop-color="#8b55e6" />
      <stop offset="0.7562" stop-color="#9f70f0" />
      <stop offset="1" stop-color="#a67af4" />
    </linearGradient>
    <linearGradient id="e84adddb-195a-46a2-86f3-55e85628d9bb" x1="9" y1="1.4691" x2="9" y2="11.9914" gradientUnits="userSpaceOnUse">
      <stop offset="0" stop-color="#50e6ff" />
      <stop offset="1" stop-color="#32bedd" />
    </linearGradient>
    <linearGradient id="f2ad054f-62bd-464a-a80b-ab08c60d8741" x1="9.0114" y1="11.863" x2="9.0114" y2="13.5018" gradientUnits="userSpaceOnUse">
      <stop offset="0" stop-color="#50e6ff" />
      <stop offset="1" stop-color="#32bedd" />
    </linearGradient>
  </defs>
  <g id="f29295db-694a-4370-9b02-dedb816f8bcf">
    <g>
      <path d="M4.411,16.4763,1.2072,13.2685a.3824.3824,0,0,1,0-.5385L4.411,9.5181a.171.171,0,0,1,.2921.1212v1.9734a.1711.1711,0,0,0,.171.171H8.8883a.1346.1346,0,0,1,.1346.1346h0v2.1538a.1346.1346,0,0,1-.1346.1346h-4.01a.171.171,0,0,0-.1709.171v1.9788a.171.171,0,0,1-.2962.12Z" fill="#50e6ff" />
      <path d="M13.6078,9.5181l3.2078,3.2038a.3822.3822,0,0,1,0,.5385l-3.2078,3.2078a.171.171,0,0,1-.2921-.1211v-1.964a.1709.1709,0,0,0-.171-.171h-4.01A.1346.1346,0,0,1,9,14.0775H9V11.9143a.1347.1347,0,0,1,.1346-.1347h4.01a.1709.1709,0,0,0,.171-.1709V9.6393a.171.171,0,0,1,.2921-.1212Z" fill="url(#b46a2f5d-6618-4a52-aaa6-d7c026b804cc)" />
      <g>
        <path d="M4.1129,9.2213A.5916.5916,0,0,1,4.95,9.2194a.595.595,0,0,1,.1742.42v1.7236H8.8883a.5542.5542,0,0,1,.1174.0131.5491.5491,0,0,1,.1289-.0166h3.7608V9.6406a.5913.5913,0,0,1,.5907-.5931h.0006a.5945.5945,0,0,1,.4181.1733l2.7741,2.7706A3.8492,3.8492,0,0,0,17.5,9.7462a3.8175,3.8175,0,0,0-3.3147-3.6706A4.8139,4.8139,0,0,0,9.2272,1.4715,4.9381,4.9381,0,0,0,4.5085,4.69,4.5574,4.5574,0,0,0,.5,9.08a4.6043,4.6043,0,0,0,1.0293,2.7313Z" fill="url(#e84adddb-195a-46a2-86f3-55e85628d9bb)" />
        <path d="M9.01,11.863a.1328.1328,0,0,0-.01.0513v1.5875h.0229V11.9183A.1326.1326,0,0,0,9.01,11.863Z" fill="url(#f2ad054f-62bd-464a-a80b-ab08c60d8741)" />
      </g>
    </g>
  </g>
</svg>