<?xml version="1.0" encoding="UTF-8"?>
<svg id="Layer_1" data-name="Layer 1" xmlns="http://www.w3.org/2000/svg" viewBox="0 0 1080 1080">
  <defs>
    <style>
      .cls-1 {
        fill: #fff;
      }

      .cls-2 {
        fill: #2623f8;
      }
    </style>
  </defs>
  <rect class="cls-2" x="140" y="140" width="800" height="800" rx="119.27" ry="119.27"/>
  <path class="cls-1" d="m710.98,485.68c-2.25-13.59-6.19-26.78-11.54-39.35-.24-.56-.5-1.11-.74-1.66-.96-2.2-1.87-4.42-2.92-6.57l-.06.03c-3.09-6.36-6.58-12.49-10.4-18.38l.05-.03c-.25-.38-.53-.73-.78-1.11-2.11-3.21-4.32-6.35-6.64-9.4-.04-.05-.08-.1-.12-.15-31.41-41.29-81.05-67.97-136.94-67.97-85.58,0-156.53,62.51-169.74,144.36-62.75,7.67-111.37,61.08-111.37,125.9,0,70.1,56.82,126.92,126.92,126.92h306.6c70.1,0,126.92-56.82,126.92-126.92,0-64.09-47.51-117.06-109.23-125.67Z"/>
  <path class="cls-2" d="m697.27,415.04l-108.23,106.53c5.89,18.2,1.54,38.97-13.02,53.29-20.54,20.21-53.57,19.95-73.78-.59-20.21-20.54-19.95-53.57.59-73.78,14.25-14.03,34.53-18.19,52.36-12.55l108.54-106.83"/>
</svg>