<svg width="161" height="28" xmlns="http://www.w3.org/2000/svg" xmlns:xlink="http://www.w3.org/1999/xlink" xml:space="preserve" overflow="hidden"><defs><clipPath id="clip0"><rect x="2732" y="757" width="161" height="28"/></clipPath></defs><g clip-path="url(#clip0)" transform="translate(-2732 -757)"><g><g><g><path d="M34.867 23.3973C34.867 20.3086 33.644 17.5073 31.6587 15.4454L25.6031 22.0033C26.2198 22.9784 26.1359 24.2811 25.3162 25.1692 24.3376 26.2286 22.6853 26.2949 21.6259 25.3162 20.5665 24.3376 20.5002 22.6853 21.4788 21.6259 22.284 20.7539 23.5443 20.5566 24.5561 21.0584L30.6211 14.4906C28.8336 13.0392 26.6019 12.117 24.161 11.956 24.1626 11.9555 24.1636 11.9549 24.1652 11.9544 24.145 11.9529 24.1248 11.9534 24.1046 11.9523 23.8705 11.9379 23.6349 11.928 23.3973 11.928 23.0011 11.928 22.6102 11.9482 22.2244 11.987 21.8387 12.0264 21.4591 12.0844 21.0858 12.161 20.3391 12.3138 19.6189 12.539 18.9328 12.8295 18.2467 13.1195 17.5948 13.4747 16.9843 13.8868 16.2216 14.4021 15.5241 15.0068 14.9069 15.6857 14.6599 15.957 14.4259 16.2408 14.2058 16.5354 13.7657 17.1241 13.3804 17.7569 13.0584 18.4254 12.844 18.8701 12.6602 19.3325 12.5038 19.8068 12.4116 20.0865 12.3293 20.3707 12.2589 20.6597 12.044 21.5373 11.9275 22.4538 11.9275 23.3983L11.9275 23.3983C11.9275 24.3883 12.0528 25.3488 12.2884 26.2648 12.7596 28.0973 13.673 29.7522 14.9069 31.1104 15.2771 31.5179 15.6764 31.8985 16.101 32.249 16.3842 32.4826 16.6788 32.7031 16.9838 32.9092 17.2241 33.0713 17.4726 33.2225 17.7253 33.3664 17.8822 33.456 18.0411 33.542 18.2027 33.6238 19.7623 34.4181 21.5265 34.8681 23.3967 34.8681 23.4646 34.8681 23.5319 34.867 23.5992 34.8655 23.7706 34.8618 23.9409 34.8541 24.1108 34.8437 24.1289 34.8427 24.147 34.8432 24.1646 34.8416 24.1631 34.8411 24.1615 34.8406 24.16 34.8396 30.1385 34.4466 34.867 29.4757 34.867 23.3978Z" fill="#FCFCFF" transform="matrix(1 0 0 1.04168 2720.6 748.128)"/></g></g></g><path d="M2888.66 764.968C2889.87 765.008 2890.85 765.168 2891.61 765.448 2892.37 765.728 2892.76 765.888 2892.78 765.928L2891.39 768.71C2891.36 768.678 2891.06 768.55 2890.51 768.326 2889.95 768.102 2889.34 767.974 2888.66 767.942 2888.19 767.937 2887.85 767.989 2887.64 768.098 2887.43 768.207 2887.33 768.403 2887.33 768.686 2887.35 768.998 2887.54 769.233 2887.9 769.391 2888.26 769.55 2888.71 769.707 2889.26 769.863 2889.82 770.023 2890.38 770.252 2890.95 770.547 2891.52 770.843 2892 771.251 2892.39 771.771 2892.78 772.291 2892.98 772.968 2893 773.801 2892.97 774.993 2892.66 775.892 2892.05 776.499 2891.44 777.105 2890.69 777.511 2889.8 777.715 2888.91 777.919 2888.03 778.014 2887.17 777.998 2886.17 777.978 2885.32 777.835 2884.61 777.569 2883.9 777.304 2883.36 777.038 2882.98 776.773 2882.6 776.507 2882.41 776.364 2882.41 776.344L2884.14 773.44C2884.15 773.458 2884.31 773.58 2884.63 773.808 2884.94 774.035 2885.33 774.262 2885.79 774.49 2886.26 774.717 2886.72 774.84 2887.19 774.857 2887.51 774.871 2887.8 774.825 2888.08 774.719 2888.35 774.613 2888.49 774.363 2888.51 773.969 2888.48 773.555 2888.2 773.254 2887.66 773.065 2887.13 772.877 2886.5 772.617 2885.77 772.288 2885.12 771.98 2884.55 771.57 2884.06 771.057 2883.56 770.545 2883.3 769.835 2883.28 768.926 2883.3 767.659 2883.79 766.685 2884.75 766.003 2885.71 765.321 2887.01 764.976 2888.66 764.968ZM2877.63 764.968C2878.55 764.983 2879.31 765.082 2879.92 765.267 2880.53 765.452 2880.99 765.636 2881.3 765.821 2881.61 766.006 2881.76 766.105 2881.77 766.12L2880.32 769.022C2880.32 768.998 2880.13 768.902 2879.77 768.734 2879.4 768.566 2878.9 768.47 2878.26 768.446 2877.43 768.467 2876.74 768.761 2876.19 769.328 2875.64 769.896 2875.35 770.61 2875.33 771.471 2875.35 772.344 2875.64 773.066 2876.19 773.636 2876.74 774.205 2877.43 774.501 2878.26 774.521 2878.9 774.497 2879.4 774.401 2879.77 774.233 2880.13 774.065 2880.32 773.969 2880.32 773.945L2881.77 776.895C2881.76 776.909 2881.61 777.004 2881.3 777.181 2880.99 777.358 2880.53 777.535 2879.92 777.712 2879.31 777.889 2878.55 777.985 2877.63 777.998 2876.43 777.985 2875.32 777.692 2874.29 777.119 2873.26 776.546 2872.43 775.773 2871.79 774.8 2871.16 773.827 2870.83 772.733 2870.82 771.519 2870.83 770.297 2871.16 769.194 2871.79 768.21 2872.42 767.226 2873.25 766.443 2874.28 765.861 2875.3 765.28 2876.42 764.982 2877.63 764.968ZM2863.33 764.968C2864.7 764.978 2865.94 765.257 2867.05 765.807 2868.15 766.357 2869.03 767.12 2869.68 768.096 2870.33 769.073 2870.66 770.206 2870.68 771.495 2870.66 772.77 2870.34 773.894 2869.72 774.867 2869.09 775.841 2868.22 776.603 2867.12 777.155 2866.02 777.707 2864.76 777.988 2863.33 777.998 2861.07 777.964 2859.28 777.355 2857.95 776.169L2856.4 772.623 2860.85 772.623 2861.21 773.567C2861.73 774.092 2862.43 774.362 2863.3 774.377 2864.15 774.362 2864.83 774.092 2865.36 773.567 2865.88 773.041 2866.15 772.351 2866.16 771.495 2866.14 770.628 2865.87 769.931 2865.33 769.403 2864.79 768.875 2864.12 768.604 2863.3 768.59 2862.48 768.604 2861.8 768.875 2861.26 769.403L2860.92 770.24 2856.28 770.24 2856.91 768.096C2857.56 767.12 2858.44 766.357 2859.56 765.807 2860.67 765.257 2861.93 764.978 2863.33 764.968ZM2851.16 757 2855.41 757 2855.41 770.24 2850.75 770.24 2850.42 769.403C2849.88 768.875 2849.21 768.604 2848.4 768.59 2847.57 768.604 2846.89 768.875 2846.35 769.403 2845.81 769.93 2845.53 770.627 2845.51 771.494L2845.51 771.495C2845.52 772.351 2845.79 773.041 2846.31 773.567 2846.82 774.092 2847.52 774.362 2848.4 774.377 2849.24 774.362 2849.92 774.092 2850.45 773.566L2850.82 772.623 2855.41 772.623 2855.41 777.638 2851.21 777.638 2851.21 776.248 2851.16 776.248C2850.7 776.761 2850.12 777.179 2849.43 777.501 2848.74 777.822 2847.97 777.988 2847.12 777.998 2845.91 777.985 2844.85 777.69 2843.93 777.113 2843.02 776.536 2842.3 775.759 2841.79 774.782 2841.27 773.805 2841.01 772.709 2841 771.495L2841 771.494C2841.01 770.28 2841.27 769.183 2841.79 768.202 2842.3 767.222 2843.02 766.441 2843.93 765.86 2844.85 765.28 2845.91 764.982 2847.12 764.968 2847.95 764.971 2848.71 765.104 2849.38 765.367 2850.06 765.63 2850.65 766.009 2851.16 766.503Z" fill="#FCFCFF" fill-rule="evenodd"/><path d="M2810.4 765.328 2814.59 765.328 2814.59 771.185C2814.58 772.385 2814.76 773.248 2815.12 773.774 2815.49 774.3 2816.11 774.557 2816.98 774.545 2817.85 774.557 2818.46 774.3 2818.83 773.774 2819.2 773.248 2819.38 772.385 2819.37 771.185L2819.37 765.328 2823.56 765.328 2823.56 772.217C2823.57 774.263 2823.04 775.743 2821.98 776.655 2820.91 777.568 2819.24 778.015 2816.98 777.998 2814.72 778.015 2813.05 777.568 2811.98 776.655 2810.92 775.743 2810.39 774.263 2810.4 772.217ZM2804.17 765.326 2808.36 765.326 2808.36 777.638 2804.17 777.638ZM2830.72 764.969C2831.91 765.008 2832.88 765.168 2833.63 765.448 2834.38 765.728 2834.76 765.888 2834.79 765.928L2833.41 768.71C2833.38 768.678 2833.09 768.55 2832.54 768.326 2832 768.102 2831.39 767.974 2830.72 767.942 2830.26 767.937 2829.93 767.989 2829.72 768.098 2829.51 768.207 2829.41 768.403 2829.41 768.686 2829.43 768.998 2829.61 769.233 2829.97 769.391 2830.33 769.55 2830.77 769.707 2831.31 769.863 2831.86 770.023 2832.42 770.252 2832.98 770.547 2833.54 770.843 2834.02 771.251 2834.4 771.771 2834.78 772.291 2834.98 772.968 2835 773.801 2834.97 774.993 2834.66 775.892 2834.06 776.499 2833.46 777.105 2832.72 777.511 2831.84 777.715 2830.97 777.919 2830.1 778.014 2829.25 777.998 2828.27 777.978 2827.43 777.835 2826.73 777.569 2826.03 777.304 2825.49 777.038 2825.12 776.773 2824.75 776.507 2824.56 776.364 2824.56 776.344L2826.26 773.44C2826.28 773.458 2826.44 773.58 2826.74 773.808 2827.05 774.035 2827.43 774.262 2827.89 774.49 2828.35 774.717 2828.81 774.84 2829.27 774.857 2829.58 774.871 2829.88 774.825 2830.15 774.719 2830.41 774.613 2830.56 774.363 2830.57 773.969 2830.55 773.555 2830.27 773.254 2829.74 773.065 2829.21 772.877 2828.59 772.617 2827.87 772.288 2827.23 771.98 2826.67 771.57 2826.18 771.057 2825.69 770.545 2825.44 769.835 2825.41 768.926 2825.43 767.659 2825.92 766.685 2826.86 766.003 2827.81 765.321 2829.1 764.976 2830.72 764.969ZM2779.19 764.969C2780.01 764.971 2780.76 765.104 2781.42 765.367 2782.09 765.631 2782.68 766.01 2783.18 766.504L2783.18 765.328 2787.36 765.328 2787.36 770.434 2783.07 770.434 2783.05 770.322C2782.91 769.973 2782.71 769.667 2782.45 769.403 2781.92 768.875 2781.25 768.604 2780.45 768.59 2779.64 768.604 2778.96 768.875 2778.43 769.403 2777.9 769.931 2777.63 770.628 2777.61 771.495 2777.62 772.351 2777.88 773.041 2778.39 773.567 2778.9 774.092 2779.59 774.362 2780.45 774.377 2781.28 774.362 2781.96 774.092 2782.47 773.567L2782.97 772.797 2787.36 772.797 2787.36 777.638 2783.22 777.638 2783.22 776.248 2783.18 776.248C2782.72 776.761 2782.15 777.179 2781.47 777.501 2780.79 777.822 2780.03 777.988 2779.19 777.998 2778 777.985 2776.95 777.69 2776.05 777.113 2775.15 776.536 2774.44 775.759 2773.93 774.782 2773.42 773.805 2773.17 772.71 2773.16 771.497L2773.16 771.495C2773.17 770.281 2773.42 769.184 2773.93 768.203 2774.44 767.222 2775.15 766.441 2776.05 765.86 2776.95 765.28 2778 764.982 2779.19 764.969ZM2770.95 764.969C2771.75 765 2772.39 765.128 2772.87 765.352 2773.35 765.576 2773.59 765.704 2773.61 765.736L2771.85 769.334C2771.85 769.306 2771.66 769.194 2771.29 768.998 2770.92 768.802 2770.38 768.69 2769.68 768.662 2768.96 768.687 2768.42 768.879 2768.06 769.24 2767.7 769.6 2767.47 769.977 2767.35 770.372 2767.23 770.767 2767.18 771.029 2767.19 771.158L2767.19 777.638 2763 777.638 2763 765.328 2767.19 765.328 2767.19 767.103 2767.24 767.103C2767.24 767.077 2767.38 766.892 2767.67 766.549 2767.96 766.207 2768.37 765.864 2768.93 765.522 2769.48 765.179 2770.16 764.995 2770.95 764.969ZM2806.33 757.72C2807.03 757.738 2807.62 757.984 2808.09 758.458 2808.55 758.931 2808.8 759.525 2808.81 760.239 2808.8 760.952 2808.55 761.546 2808.09 762.02 2807.62 762.493 2807.03 762.739 2806.33 762.757 2805.62 762.739 2805.04 762.493 2804.57 762.02 2804.1 761.546 2803.86 760.952 2803.84 760.239 2803.86 759.525 2804.1 758.931 2804.57 758.458 2805.04 757.984 2805.62 757.738 2806.33 757.72ZM2797.98 757 2802.17 757 2802.17 777.638 2798.02 777.638 2798.02 776.248 2797.98 776.248C2797.52 776.761 2796.95 777.179 2796.27 777.501 2795.59 777.822 2794.83 777.988 2794 777.998 2792.8 777.985 2791.76 777.69 2790.85 777.113 2789.95 776.536 2789.24 775.759 2788.73 774.782L2788.27 772.797 2792.7 772.797 2793.19 773.567C2793.7 774.092 2794.39 774.362 2795.25 774.377 2796.08 774.362 2796.76 774.092 2797.27 773.566 2797.79 773.041 2798.06 772.35 2798.07 771.494 2798.05 770.627 2797.78 769.93 2797.25 769.403 2796.72 768.875 2796.05 768.604 2795.25 768.59 2794.44 768.604 2793.77 768.875 2793.23 769.403 2792.97 769.667 2792.77 769.973 2792.63 770.321L2792.61 770.434 2788.21 770.434 2788.73 768.202C2789.24 767.222 2789.95 766.441 2790.85 765.86 2791.76 765.28 2792.8 764.982 2794 764.969 2794.81 764.971 2795.56 765.104 2796.23 765.367 2796.89 765.63 2797.48 766.009 2797.98 766.503Z" fill="#FFFFFF" fill-rule="evenodd"/></g></svg>